<svg width="140" height="29" viewBox="0 0 140 29" fill="none" xmlns="http://www.w3.org/2000/svg">
<g clip-path="url(#clip0_2578_40)">
<path d="M139.752 21.6557V25.1203H136.846C133.744 25.0228 132.087 23.3481 132.087 20.2026V12.2899H130.058V9.25068H132.087V5.84814H136.376V9.21523H139.654V12.2456H136.376V19.7773C136.376 20.7962 136.58 21.6114 138.148 21.6114L139.752 21.6557Z" fill="#FFD0A0"/>
<path d="M112.966 17.2164V16.9861C112.919 15.9669 113.075 14.9487 113.422 13.9897C113.77 13.0307 114.304 12.1497 114.993 11.3974C115.682 10.645 116.513 10.036 117.438 9.60527C118.362 9.17456 119.363 8.93058 120.382 8.88733C120.586 8.88733 120.799 8.88733 121.002 8.88733C125.052 8.88733 128.605 11.2443 128.605 16.862V18.0582H117.352C117.467 20.6456 118.867 22.1076 121.224 22.1076C123.253 22.1076 124.201 21.2215 124.476 19.9278H128.525C128.029 23.3038 125.335 25.1823 121.073 25.1823C116.395 25.1468 112.966 22.1873 112.966 17.2164ZM124.387 15.3468C124.237 12.9899 123.049 11.8557 120.985 11.8557C118.92 11.8557 117.733 13.1316 117.44 15.3468H124.387Z" fill="#FFD0A0"/>
<path d="M95.4569 17.2164V16.9861C95.4105 15.9684 95.5651 14.9515 95.9119 13.9936C96.2586 13.0357 96.7908 12.1555 97.4779 11.4034C98.165 10.6513 98.9936 10.0419 99.9164 9.6102C100.839 9.17848 101.838 8.93284 102.856 8.88733C103.059 8.88733 103.272 8.88733 103.476 8.88733C107.525 8.88733 111.087 11.2443 111.087 16.862V18.0582H99.843C99.9582 20.6456 101.358 22.1076 103.715 22.1076C105.744 22.1076 106.692 21.2215 106.967 19.9278H111.016C110.511 23.3038 107.818 25.1823 103.556 25.1823C98.886 25.1468 95.4569 22.1873 95.4569 17.2164ZM106.878 15.3468C106.728 12.9899 105.54 11.8557 103.476 11.8557C101.411 11.8557 100.259 13.1671 99.9316 15.338L106.878 15.3468Z" fill="#FFD0A0"/>
<path d="M70.8861 9.21521H75.4228L78.1962 19.7241L81.2355 9.21521H84.7798L87.5266 19.7241L90.4507 9.21521H94.6064L89.6798 24.8279H85.4266L82.7684 15.0279L79.9241 24.8279H75.6178L70.8861 9.21521Z" fill="#FFD0A0"/>
<path d="M56.4696 19.919H60.519C60.7051 21.3279 61.4051 22.1342 63.2658 22.1342C64.9316 22.1342 65.7025 21.5051 65.7025 20.4329C65.7025 19.3608 64.8164 18.9089 62.5481 18.5899C58.3924 17.9608 56.7886 16.7646 56.7886 13.7165C56.7886 10.4646 59.7658 8.85193 62.9911 8.85193C66.4557 8.85193 69.0696 10.1102 69.4418 13.6988H65.4456C65.4201 13.4213 65.3398 13.1517 65.2095 12.9055C65.0792 12.6592 64.9014 12.4412 64.6864 12.2641C64.4714 12.087 64.2234 11.9542 63.9567 11.8735C63.6901 11.7927 63.4101 11.7656 63.1329 11.7937H63C61.6 11.7937 60.7848 12.4494 60.7848 13.4064C60.7848 14.3633 61.538 14.7798 63.824 15.1076C67.705 15.6924 69.8759 16.676 69.8759 20.0165C69.8759 23.357 67.4215 25.1469 63.3101 25.1469C59.1987 25.1469 56.5848 23.295 56.4696 19.919Z" fill="#FFD0A0"/>
<path d="M39.262 9.21514H43.5506V11.6873C44.034 10.7799 44.7677 10.0304 45.6646 9.52772C46.5614 9.02509 47.5838 8.79051 48.6101 8.85185C51.6493 8.85185 53.8556 10.7038 53.8556 14.9303V24.8632H49.6202V15.5506C49.6202 13.4329 48.7961 12.4227 46.8822 12.4227C46.4777 12.3875 46.0702 12.4325 45.6831 12.5552C45.296 12.6779 44.937 12.8758 44.6266 13.1376C44.3162 13.3995 44.0606 13.72 43.8744 14.0809C43.6883 14.4417 43.5752 14.8358 43.5417 15.2405C43.5196 15.4288 43.5196 15.6192 43.5417 15.8076V24.8278H39.262V9.21514Z" fill="#FFD0A0"/>
<path d="M30.986 5.28988C30.9705 4.86229 31.0822 4.4397 31.3069 4.07562C31.5317 3.71153 31.8595 3.42233 32.2487 3.24462C32.6379 3.06691 33.0711 3.00868 33.4934 3.07731C33.9158 3.14594 34.3082 3.33834 34.6212 3.63016C34.9341 3.92197 35.1534 4.30007 35.2513 4.71659C35.3492 5.13311 35.3213 5.56932 35.1712 5.96999C35.0211 6.37065 34.7554 6.71776 34.4079 6.96737C34.0604 7.21697 33.6466 7.35785 33.219 7.37216H33.1392C32.8738 7.38896 32.6077 7.35319 32.3561 7.2669C32.1046 7.18062 31.8725 7.04551 31.6733 6.86934C31.4741 6.69317 31.3116 6.4794 31.1952 6.24029C31.0788 6.00117 31.0107 5.74143 30.9949 5.47596C30.9875 5.41422 30.9846 5.35204 30.986 5.28988ZM30.986 9.2152H35.319V24.8279H31.0038L30.986 9.2152Z" fill="#FFD0A0"/>
<path d="M14.6556 3.49109H28.3544V7.27463H19.4936V12.9189H26.5113V16.5607H19.4848V24.8278H14.6556V3.49109Z" fill="#FFD0A0"/>
<path d="M6.38861 10.4734C6.38861 11.8114 6.38861 13.4418 4.54557 14.1063C6.43291 14.7532 6.38861 16.1266 6.38861 17.562V22.8785C6.38861 23.8886 6.7962 24.5 7.52279 24.6506C7.68244 24.7045 7.85064 24.7285 8.01899 24.7215H9.79114V28.2658H6.86709C3.7481 28.2658 2.02911 26.4937 2.02911 23.2063V16.9152C2.00699 16.5922 1.86458 16.2893 1.63 16.0662C1.39541 15.8431 1.08571 15.716 0.762025 15.7101H0V12.6H0.762025C1.09216 12.5956 1.40796 12.4644 1.64388 12.2334C1.87981 12.0024 2.01776 11.6895 2.02911 11.3595V4.97975C2.02911 1.74557 3.71266 0 6.86709 0H9.81772V3.49114H8.04557C7.87702 3.49163 7.70958 3.51854 7.54937 3.57089C6.82278 3.75696 6.41519 4.35949 6.41519 5.34304L6.38861 10.4734Z" fill="#FFD0A0"/>
</g>
<defs>
<clipPath id="clip0_2578_40">
<rect width="140" height="28.3544" fill="white"/>
</clipPath>
</defs>
</svg>
