<svg width="20" height="20" viewBox="0 0 20 20" fill="none" xmlns="http://www.w3.org/2000/svg">
<path fill-rule="evenodd" clip-rule="evenodd" d="M10 1.53846C5.32682 1.53846 1.53846 5.32682 1.53846 10C1.53846 14.6732 5.32682 18.4615 10 18.4615C14.6732 18.4615 18.4615 14.6732 18.4615 10C18.4615 5.32682 14.6732 1.53846 10 1.53846ZM0 10C0 4.47715 4.47715 0 10 0C15.5228 0 20 4.47715 20 10C20 15.5228 15.5228 20 10 20C4.47715 20 0 15.5228 0 10ZM10 5.12821C10.4248 5.12821 10.7692 5.4726 10.7692 5.89744V9.68138L13.6209 12.533C13.9213 12.8334 13.9213 13.3204 13.6209 13.6209C13.3204 13.9213 12.8334 13.9213 12.533 13.6209L9.45607 10.5439C9.31181 10.3997 9.23077 10.204 9.23077 10V5.89744C9.23077 5.4726 9.57517 5.12821 10 5.12821Z" fill="#161722"/>
</svg>
