<svg width="187" height="140" viewBox="0 0 187 140" fill="none" xmlns="http://www.w3.org/2000/svg">
<path d="M77.1657 33.4661C77.1657 24.17 73.7861 16.1753 67.0271 9.48207C60.6436 3.16069 52.5703 0 42.8072 0C29.2892 0 18.7751 4.64808 11.2651 13.9442C3.75502 23.6122 0 34.7676 0 47.4104C0 66.7463 5.82028 84.2231 17.4608 99.8406C29.1014 115.83 42.4317 129.216 57.4518 140L76.6024 121.036C71.7209 116.202 65.9006 110.252 59.1416 103.187C52.3825 96.1222 49.003 88.8712 49.003 81.4343C49.003 76.6003 51.256 72.324 55.762 68.6056C60.6436 64.8871 65.3373 60.425 69.8434 55.2191C74.7249 50.0133 77.1657 42.7623 77.1657 33.4661ZM187 33.4661C187 24.17 183.62 16.1753 176.861 9.48207C170.478 3.16069 162.405 0 152.642 0C139.123 0 128.609 4.64808 121.099 13.9442C113.589 23.6122 109.834 34.7676 109.834 47.4104C109.834 66.7463 115.655 84.2231 127.295 99.8406C138.936 115.83 152.266 129.216 167.286 140L186.437 121.036C181.555 116.202 175.735 110.252 168.976 103.187C162.217 96.1222 158.837 88.8712 158.837 81.4343C158.837 76.6003 161.09 72.324 165.596 68.6056C170.478 64.8871 175.172 60.425 179.678 55.2191C184.559 50.0133 187 42.7623 187 33.4661Z" fill="#FFF5EB"/>
</svg>
